<svg id="visual" viewBox="0 0 900 600" width="900" height="600" xmlns="http://www.w3.org/2000/svg" xmlns:xlink="http://www.w3.org/1999/xlink" version="1.1"><path d="M0 199L13.7 187C27.3 175 54.7 151 82 160C109.3 169 136.7 211 163.8 221C191 231 218 209 245.2 193C272.3 177 299.7 167 327 172C354.3 177 381.7 197 409 187C436.3 177 463.7 137 491 124C518.3 111 545.7 125 573 128C600.3 131 627.7 123 654.8 125C682 127 709 139 736.2 138C763.3 137 790.7 123 818 129C845.3 135 872.7 161 886.3 174L900 187L900 0L886.3 0C872.7 0 845.3 0 818 0C790.7 0 763.3 0 736.2 0C709 0 682 0 654.8 0C627.7 0 600.3 0 573 0C545.7 0 518.3 0 491 0C463.7 0 436.3 0 409 0C381.7 0 354.3 0 327 0C299.7 0 272.3 0 245.2 0C218 0 191 0 163.8 0C136.7 0 109.3 0 82 0C54.7 0 27.3 0 13.7 0L0 0Z" fill="#594da4"></path><path d="M0 361L13.7 334C27.3 307 54.7 253 82 245C109.3 237 136.7 275 163.8 291C191 307 218 301 245.2 283C272.3 265 299.7 235 327 248C354.3 261 381.7 317 409 318C436.3 319 463.7 265 491 241C518.3 217 545.7 223 573 221C600.3 219 627.7 209 654.8 208C682 207 709 215 736.2 216C763.3 217 790.7 211 818 226C845.3 241 872.7 277 886.3 295L900 313L900 185L886.3 172C872.7 159 845.3 133 818 127C790.7 121 763.3 135 736.2 136C709 137 682 125 654.8 123C627.7 121 600.3 129 573 126C545.7 123 518.3 109 491 122C463.7 135 436.3 175 409 185C381.7 195 354.3 175 327 170C299.7 165 272.3 175 245.2 191C218 207 191 229 163.8 219C136.7 209 109.3 167 82 158C54.7 149 27.3 173 13.7 185L0 197Z" fill="#443893"></path><path d="M0 397L13.7 370C27.3 343 54.7 289 82 290C109.3 291 136.7 347 163.8 370C191 393 218 383 245.2 366C272.3 349 299.7 325 327 340C354.3 355 381.7 409 409 402C436.3 395 463.7 327 491 303C518.3 279 545.7 299 573 297C600.3 295 627.7 271 654.8 269C682 267 709 287 736.2 297C763.3 307 790.7 307 818 324C845.3 341 872.7 375 886.3 392L900 409L900 311L886.3 293C872.7 275 845.3 239 818 224C790.7 209 763.3 215 736.2 214C709 213 682 205 654.8 206C627.7 207 600.3 217 573 219C545.7 221 518.3 215 491 239C463.7 263 436.3 317 409 316C381.7 315 354.3 259 327 246C299.7 233 272.3 263 245.2 281C218 299 191 305 163.8 289C136.7 273 109.3 235 82 243C54.7 251 27.3 305 13.7 332L0 359Z" fill="#2e2483"></path><path d="M0 481L13.7 455C27.3 429 54.7 377 82 371C109.3 365 136.7 405 163.8 425C191 445 218 445 245.2 440C272.3 435 299.7 425 327 440C354.3 455 381.7 495 409 490C436.3 485 463.7 435 491 407C518.3 379 545.7 373 573 364C600.3 355 627.7 343 654.8 347C682 351 709 371 736.2 382C763.3 393 790.7 395 818 412C845.3 429 872.7 461 886.3 477L900 493L900 407L886.3 390C872.7 373 845.3 339 818 322C790.7 305 763.3 305 736.2 295C709 285 682 265 654.8 267C627.7 269 600.3 293 573 295C545.7 297 518.3 277 491 301C463.7 325 436.3 393 409 400C381.7 407 354.3 353 327 338C299.7 323 272.3 347 245.2 364C218 381 191 391 163.8 368C136.7 345 109.3 289 82 288C54.7 287 27.3 341 13.7 368L0 395Z" fill="#252172"></path><path d="M0 601L13.7 601C27.3 601 54.7 601 82 601C109.3 601 136.7 601 163.8 601C191 601 218 601 245.2 601C272.3 601 299.7 601 327 601C354.3 601 381.7 601 409 601C436.3 601 463.7 601 491 601C518.3 601 545.7 601 573 601C600.3 601 627.7 601 654.8 601C682 601 709 601 736.2 601C763.3 601 790.7 601 818 601C845.3 601 872.7 601 886.3 601L900 601L900 491L886.3 475C872.7 459 845.3 427 818 410C790.7 393 763.3 391 736.2 380C709 369 682 349 654.8 345C627.7 341 600.3 353 573 362C545.7 371 518.3 377 491 405C463.7 433 436.3 483 409 488C381.7 493 354.3 453 327 438C299.7 423 272.3 433 245.2 438C218 443 191 443 163.8 423C136.7 403 109.3 363 82 369C54.7 375 27.3 427 13.7 453L0 479Z" fill="#1d1e61"></path></svg>